PathFileType	4	(X/Y/Z)	 control3min.trc
DataRate	CameraRate	NumFrames	NumMarkers	Units	OrigDataRate	OrigDataStartFrame	OrigNumFrames
200	200	8	39	m	200	376	1000
Frame#	Time	C7			LSH			RSH			MAN			RASI			LASI			HIPR			HIPL			RPSI			LPSI			COX			RTHI1			RTHI2			RTHI3			RTHI4			RLKN			RMKN			RSHA1			RSHA2			RSHA3			RSHA4			RHEEL			RMET5			RMET1			RTOE			LTHI1			LTHI2			LTHI3			LTHI4			LLKN			LMKN			LSHA1			LSHA2			LSHA3			LSHA4			LHEEL			LMET5			LMET1			LTOE			
		X1	Y1	Z1	X2	Y2	Z2	X3	Y3	Z3	X4	Y4	Z4	X5	Y5	Z5	X6	Y6	Z6	X7	Y7	Z7	X8	Y8	Z8	X9	Y9	Z9	X10	Y10	Z10	X11	Y11	Z11	X12	Y12	Z12	X13	Y13	Z13	X14	Y14	Z14	X15	Y15	Z15	X16	Y16	Z16	X17	Y17	Z17	X18	Y18	Z18	X19	Y19	Z19	X20	Y20	Z20	X21	Y21	Z21	X22	Y22	Z22	X23	Y23	Z23	X24	Y24	Z24	X25	Y25	Z25	X26	Y26	Z26	X27	Y27	Z27	X28	Y28	Z28	X29	Y29	Z29	X30	Y30	Z30	X31	Y31	Z31	X32	Y32	Z32	X33	Y33	Z33	X34	Y34	Z34	X35	Y35	Z35	X36	Y36	Z36	X37	Y37	Z37	X38	Y38	Z38	X39	Y39	Z39	
376	1.8800	-0.254566	1.544790	-0.541078	-0.212377	1.523548	-0.729303	-0.217040	1.531023	-0.358875	-0.107184	1.485356	-0.548865	-0.135515	1.028839	-0.421455	-0.131418	1.032203	-0.666770	-0.197113	1.094539	-0.377272	-0.199582	1.104441	-0.706734	-0.305969	1.093611	-0.508391	-0.305002	1.094465	-0.572124	-0.304481	1.094961	-0.541946	-0.200646	0.805283	-0.341189	-0.189924	0.744916	-0.340863	-0.120293	0.765441	-0.345573	-0.137812	0.822579	-0.345881	-0.198307	0.538694	-0.366040	-0.172670	0.523098	-0.496686	-0.285289	0.305183	-0.368327	-0.303304	0.269472	-0.383804	-0.245759	0.248145	-0.381122	-0.231814	0.284211	-0.369760	-0.362341	0.148712	-0.442550	-0.229723	0.038636	-0.374130	-0.177521	0.048453	-0.446691	-0.150564	0.035934	-0.442738	-0.241634	0.787892	-0.733084	-0.226120	0.730458	-0.728841	-0.158383	0.749868	-0.747920	-0.182539	0.806936	-0.750107	-0.208056	0.525688	-0.723238	-0.192684	0.506740	-0.600758	-0.316461	0.298610	-0.715438	-0.329376	0.260889	-0.706536	-0.271194	0.243627	-0.716431	-0.264942	0.286462	-0.725461	-0.388701	0.149217	-0.659965	-0.250371	0.039931	-0.712302	-0.205819	0.056824	-0.645030	-0.181188	0.042452	-0.649379	
377	1.8850	-0.254034	1.539196	-0.540814	-0.211739	1.517938	-0.729096	-0.216541	1.525270	-0.358660	-0.106624	1.479549	-0.548626	-0.136052	1.023439	-0.421306	-0.131857	1.026567	-0.666552	-0.197473	1.089261	-0.377056	-0.199766	1.099154	-0.706677	-0.306296	1.088667	-0.508164	-0.305376	1.089493	-0.571932	-0.304822	1.090019	-0.541754	-0.200130	0.799945	-0.341136	-0.188978	0.739669	-0.340523	-0.119509	0.760661	-0.345482	-0.137441	0.817667	-0.346045	-0.196063	0.533335	-0.365503	-0.170718	0.518005	-0.496070	-0.285950	0.300930	-0.368438	-0.304405	0.265510	-0.384194	-0.247098	0.243529	-0.381863	-0.232712	0.279392	-0.370221	-0.365466	0.144497	-0.443306	-0.230770	0.037188	-0.373922	-0.177913	0.048191	-0.446892	-0.150445	0.035717	-0.443321	-0.240974	0.782246	-0.732815	-0.225185	0.724886	-0.728646	-0.157536	0.744649	-0.747648	-0.181960	0.801596	-0.749785	-0.206029	0.520399	-0.723286	-0.190841	0.501533	-0.600897	-0.317062	0.294576	-0.715065	-0.330061	0.256699	-0.706176	-0.272371	0.239118	-0.715675	-0.265663	0.281832	-0.724916	-0.391228	0.145421	-0.659164	-0.251598	0.037630	-0.712136	-0.206877	0.054757	-0.643308	-0.181842	0.040240	-0.646984	
378	1.8900	-0.253502	1.533394	-0.540551	-0.211057	1.512113	-0.728921	-0.216039	1.519312	-0.358455	-0.106035	1.473497	-0.548401	-0.136610	1.017816	-0.421136	-0.132325	1.020723	-0.666324	-0.197910	1.083720	-0.376799	-0.200036	1.093567	-0.706635	-0.306682	1.083447	-0.507936	-0.305772	1.084234	-0.571741	-0.305186	1.084774	-0.541550	-0.199550	0.794387	-0.341029	-0.187933	0.734203	-0.340103	-0.118646	0.755712	-0.345392	-0.137022	0.812571	-0.346238	-0.193636	0.527743	-0.364960	-0.168574	0.512701	-0.495390	-0.286764	0.296703	-0.368676	-0.305723	0.261633	-0.384688	-0.248717	0.238874	-0.382680	-0.233814	0.274519	-0.370773	-0.368753	0.140346	-0.444048	-0.231861	0.036502	-0.373532	-0.178372	0.048223	-0.446569	-0.150609	0.035585	-0.443194	-0.240264	0.776409	-0.732526	-0.224210	0.719119	-0.728507	-0.156654	0.739242	-0.747434	-0.181318	0.796068	-0.749422	-0.203857	0.514905	-0.723378	-0.188840	0.496104	-0.601121	-0.317939	0.290581	-0.714644	-0.331588	0.252472	-0.705576	-0.273936	0.234568	-0.714842	-0.266705	0.277124	-0.724357	-0.394122	0.141388	-0.658440	-0.252586	0.036237	-0.712289	-0.207447	0.053372	-0.642090	-0.182182	0.039068	-0.644797	
379	1.8950	-0.252977	1.527415	-0.540289	-0.210338	1.506086	-0.728796	-0.215541	1.513169	-0.358247	-0.105413	1.467214	-0.548190	-0.137196	1.011980	-0.420951	-0.132831	1.014695	-0.666081	-0.198423	1.077925	-0.376493	-0.200405	1.087664	-0.706609	-0.307132	1.077963	-0.507714	-0.306204	1.078713	-0.571556	-0.305620	1.079255	-0.541357	-0.198906	0.788631	-0.340853	-0.186794	0.728546	-0.339593	-0.117708	0.750616	-0.345285	-0.136554	0.807312	-0.346435	-0.191028	0.521980	-0.364423	-0.166219	0.507219	-0.494667	-0.287576	0.292535	-0.368985	-0.307089	0.257832	-0.385233	-0.250439	0.234230	-0.383534	-0.234955	0.269626	-0.371391	-0.372028	0.136334	-0.444757	-0.233053	0.036209	-0.373360	-0.179313	0.048215	-0.446011	-0.151394	0.035509	-0.442900	-0.239513	0.770394	-0.732225	-0.223203	0.713170	-0.728444	-0.155746	0.733659	-0.747304	-0.180639	0.790377	-0.749046	-0.201533	0.509225	-0.723505	-0.186654	0.490489	-0.601409	-0.319012	0.286656	-0.714127	-0.333886	0.248937	-0.704673	-0.275813	0.230012	-0.713964	-0.267987	0.272387	-0.723788	-0.397178	0.137292	-0.657867	-0.253363	0.035544	-0.712906	-0.207949	0.052891	-0.641081	-0.182177	0.038843	-0.642973	
380	1.9000	-0.252460	1.521296	-0.540033	-0.209594	1.499871	-0.728733	-0.215055	1.506860	-0.358019	-0.104759	1.460724	-0.547991	-0.137822	1.005945	-0.420748	-0.133375	1.008517	-0.665819	-0.199011	1.071879	-0.376127	-0.200879	1.081454	-0.706603	-0.307639	1.072216	-0.507498	-0.306675	1.072946	-0.571380	-0.306121	1.073478	-0.541177	-0.198199	0.782716	-0.340593	-0.185563	0.722731	-0.338986	-0.116701	0.745396	-0.345133	-0.136046	0.801910	-0.346599	-0.188269	0.516118	-0.363902	-0.163639	0.501600	-0.493922	-0.288231	0.288418	-0.369287	-0.308321	0.254094	-0.385758	-0.252036	0.229660	-0.384387	-0.235963	0.264759	-0.372024	-0.375153	0.132438	-0.445403	-0.234325	0.035768	-0.373549	-0.180561	0.048088	-0.445946	-0.152218	0.035436	-0.443024	-0.238727	0.764211	-0.731935	-0.222165	0.707044	-0.728467	-0.154816	0.727914	-0.747289	-0.179944	0.784539	-0.748694	-0.199081	0.503412	-0.723655	-0.184267	0.484706	-0.601753	-0.320134	0.282788	-0.713552	-0.336427	0.246535	-0.704062	-0.277812	0.225487	-0.713098	-0.269342	0.267662	-0.723226	-0.400201	0.133271	-0.657506	-0.253651	0.035189	-0.713103	-0.208690	0.052628	-0.640642	-0.182238	0.038428	-0.641657	
381	1.9050	-0.251952	1.515079	-0.539792	-0.208836	1.493490	-0.728751	-0.214587	1.500418	-0.357756	-0.104070	1.454057	-0.547808	-0.138494	0.999725	-0.420529	-0.133958	1.002222	-0.665535	-0.199673	1.065589	-0.375698	-0.201492	1.074942	-0.706629	-0.308223	1.066224	-0.507295	-0.307200	1.066948	-0.571214	-0.306688	1.067460	-0.541010	-0.197448	0.776669	-0.340228	-0.184263	0.716792	-0.338285	-0.115633	0.740064	-0.344909	-0.135501	0.796395	-0.346688	-0.185372	0.510234	-0.363387	-0.160850	0.495905	-0.493179	-0.288594	0.284346	-0.369514	-0.309268	0.250412	-0.386204	-0.253336	0.225175	-0.385210	-0.236683	0.259959	-0.372652	-0.378010	0.128618	-0.445967	-0.235588	0.035193	-0.373683	-0.181631	0.048105	-0.446504	-0.152832	0.035352	-0.443186	-0.237912	0.757864	-0.731690	-0.221094	0.700754	-0.728576	-0.153866	0.722025	-0.747404	-0.179254	0.778548	-0.748409	-0.196542	0.497530	-0.723829	-0.181680	0.478791	-0.602143	-0.321130	0.278964	-0.713042	-0.338276	0.243702	-0.703723	-0.279715	0.221009	-0.712276	-0.270584	0.262973	-0.722705	-0.403084	0.129345	-0.657364	-0.254145	0.034904	-0.713132	-0.209672	0.052123	-0.640498	-0.182753	0.037928	-0.640848	
382	1.9100	-0.251445	1.508816	-0.539574	-0.208078	1.486971	-0.728863	-0.214152	1.493881	-0.357445	-0.103346	1.447241	-0.547642	-0.139217	0.993353	-0.420298	-0.134575	0.995851	-0.665232	-0.200415	1.059072	-0.375202	-0.202234	1.068149	-0.706692	-0.308884	1.060011	-0.507100	-0.307794	1.060745	-0.571057	-0.307334	1.061231	-0.540849	-0.196661	0.770522	-0.339756	-0.182912	0.710771	-0.337495	-0.114524	0.734657	-0.344592	-0.134922	0.790795	-0.346668	-0.182373	0.504382	-0.362881	-0.157876	0.490193	-0.492454	-0.288574	0.280316	-0.369644	-0.309813	0.246757	-0.386521	-0.254231	0.220781	-0.385983	-0.237022	0.255247	-0.373260	-0.380538	0.124834	-0.446528	-0.236629	0.034597	-0.373491	-0.182278	0.048160	-0.446847	-0.153131	0.035294	-0.443231	-0.237072	0.751364	-0.731521	-0.219978	0.694320	-0.728755	-0.152897	0.716009	-0.747643	-0.178555	0.772401	-0.748260	-0.193970	0.491639	-0.724032	-0.178923	0.472804	-0.602569	-0.321859	0.275157	-0.712683	-0.339526	0.240517	-0.703599	-0.281327	0.216594	-0.711519	-0.271552	0.258337	-0.722230	-0.405741	0.125500	-0.657353	-0.254896	0.034527	-0.713562	-0.210736	0.051665	-0.639975	-0.183395	0.037727	-0.640302	
383	1.9150	-0.250932	1.502568	-0.539391	-0.207325	1.480357	-0.729072	-0.213754	1.487289	-0.357083	-0.102583	1.440315	-0.547495	-0.139999	0.986881	-0.420056	-0.135216	0.989440	-0.664904	-0.201246	1.052351	-0.374648	-0.203100	1.061097	-0.706794	-0.309622	1.053599	-0.506917	-0.308444	1.054366	-0.570908	-0.308055	1.054810	-0.540682	-0.195854	0.764341	-0.339180	-0.181544	0.704726	-0.336627	-0.113401	0.729212	-0.344163	-0.134328	0.785154	-0.346512	-0.179294	0.498597	-0.362373	-0.154756	0.484532	-0.491755	-0.288162	0.276300	-0.369677	-0.309924	0.243087	-0.386722	-0.254684	0.216467	-0.386725	-0.236959	0.250604	-0.373841	-0.382734	0.121056	-0.447147	-0.237254	0.034086	-0.373365	-0.182540	0.048083	-0.446886	-0.153097	0.035197	-0.443300	-0.236212	0.744739	-0.731445	-0.218819	0.687768	-0.728984	-0.151907	0.709884	-0.747986	-0.177867	0.766132	-0.748310	-0.191415	0.485808	-0.724263	-0.176058	0.466805	-0.603036	-0.322234	0.271335	-0.712515	-0.340272	0.237061	-0.703630	-0.282514	0.212247	-0.710839	-0.272116	0.253779	-0.721818	-0.408121	0.121741	-0.657365	-0.255340	0.034169	-0.714109	-0.211718	0.051467	-0.639130	-0.183778	0.037534	-0.639816	
